<?xml version="1.0" encoding="UTF-8"?>
<svg version="1.1" xmlns="http://www.w3.org/2000/svg" width="48" height="48">
<path d="M0 0 C0.99 0.66 1.98 1.32 3 2 C3 2.66 3 3.32 3 4 C3.66 4 4.32 4 5 4 C5.33 3.01 5.66 2.02 6 1 C9.20841035 -0.60420518 12.5193987 -0.47462745 16 0 C18.5 1.5 18.5 1.5 20 4 C20.71800507 8.49213431 20.33594954 12.05808516 18 16 C18 16.99 18 17.98 18 19 C18.69867188 18.6390625 19.39734375 18.278125 20.1171875 17.90625 C21.02726562 17.4421875 21.93734375 16.978125 22.875 16.5 C23.77992187 16.0359375 24.68484375 15.571875 25.6171875 15.09375 C28 14 28 14 30 14 C30 19.28 30 24.56 30 30 C25.64989137 28.54996379 22.00891482 27.09990776 18 25 C18 28.3 18 31.6 18 35 C9.09 35 0.18 35 -9 35 C-9 30.71 -9 26.42 -9 22 C-10.98 22.99 -10.98 22.99 -13 24 C-13.99 24 -14.98 24 -16 24 C-16 21.36 -16 18.72 -16 16 C-11.25 16.875 -11.25 16.875 -9 18 C-9.309375 17.38125 -9.61875 16.7625 -9.9375 16.125 C-11.99794137 12.00411726 -12.62994956 8.61963014 -12 4 C-8.99025369 -1.01624385 -5.3242936 -0.50707558 0 0 Z " fill="#626262" transform="translate(17,6)"/>
<path d="M0 0 C0 5.28 0 10.56 0 16 C-4.35010863 14.54996379 -7.99108518 13.09990776 -12 11 C-12 14.3 -12 17.6 -12 21 C-20.91 21 -29.82 21 -39 21 C-39.33 16.38 -39.66 11.76 -40 7 C-38.205625 7.020625 -36.41125 7.04125 -34.5625 7.0625 C-32.70833878 7.0838122 -30.85287502 7.07226502 -29 7 C-28.67 6.67 -28.34 6.34 -28 6 C-26.33382885 5.95936168 -24.66611905 5.957279 -23 6 C-23 5.34 -23 4.68 -23 4 C-21.7315625 4.06960937 -21.7315625 4.06960937 -20.4375 4.140625 C-12.74533064 4.38537584 -6.56756307 0 0 0 Z " fill="#282828" transform="translate(47,20)"/>
<path d="M0 0 C1.40958984 -0.00193359 1.40958984 -0.00193359 2.84765625 -0.00390625 C3.83636719 -0.00003906 4.82507813 0.00382812 5.84375 0.0078125 C7.32681641 0.00201172 7.32681641 0.00201172 8.83984375 -0.00390625 C9.77957031 -0.00261719 10.71929688 -0.00132813 11.6875 0 C12.55568359 0.00112793 13.42386719 0.00225586 14.31835938 0.00341797 C16.34375 0.1328125 16.34375 0.1328125 17.34375 1.1328125 C17.46875 4.6328125 17.46875 4.6328125 17.34375 8.1328125 C15.72174485 9.75481765 13.92351969 9.26272 11.6875 9.265625 C10.27791016 9.26755859 10.27791016 9.26755859 8.83984375 9.26953125 C7.85113281 9.26566406 6.86242187 9.26179688 5.84375 9.2578125 C4.85503906 9.26167969 3.86632812 9.26554687 2.84765625 9.26953125 C1.90792969 9.26824219 0.96820312 9.26695313 0 9.265625 C-0.86818359 9.26449707 -1.73636719 9.26336914 -2.63085938 9.26220703 C-4.65625 9.1328125 -4.65625 9.1328125 -5.65625 8.1328125 C-5.78125 4.6328125 -5.78125 4.6328125 -5.65625 1.1328125 C-4.03424485 -0.48919265 -2.23601969 0.002905 0 0 Z " fill="#7F7C77" transform="translate(15.65625,29.8671875)"/>
<path d="M0 0 C2.375 1.625 2.375 1.625 4 4 C4.50299316 8.10777749 4.32749345 9.50875983 2 13 C3.423125 12.938125 3.423125 12.938125 4.875 12.875 C8 13 8 13 10 15 C7.22858283 15.08089542 4.45952181 15.14044062 1.6875 15.1875 C0.90181641 15.21263672 0.11613281 15.23777344 -0.69335938 15.26367188 C-1.45068359 15.27333984 -2.20800781 15.28300781 -2.98828125 15.29296875 C-3.68477783 15.3086792 -4.38127441 15.32438965 -5.09887695 15.34057617 C-7.63299791 14.88660176 -8.48197805 14.05451164 -10 12 C-10.75912409 5.16788321 -10.75912409 5.16788321 -8.375 1.5 C-5.27859404 -0.45562482 -3.60146865 -0.60024477 0 0 Z " fill="#545454" transform="translate(16,7)"/>
<path d="M0 0 C0 5.28 0 10.56 0 16 C-4.35010863 14.54996379 -7.99108518 13.09990776 -12 11 C-12 9.02 -12 7.04 -12 5 C-10.37750059 4.16180842 -8.75191503 3.3295884 -7.125 2.5 C-6.22007813 2.0359375 -5.31515625 1.571875 -4.3828125 1.09375 C-2 0 -2 0 0 0 Z " fill="#2E2E2E" transform="translate(47,20)"/>
<path d="M0 0 C0.99 0.66 1.98 1.32 3 2 C3 2.66 3 3.32 3 4 C3.66 4 4.32 4 5 4 C5.33 3.01 5.66 2.02 6 1 C9.20841035 -0.60420518 12.5193987 -0.47462745 16 0 C18.5 1.5 18.5 1.5 20 4 C20.31584913 6.75841574 20.1862657 9.20601454 20 12 C19.01 12.495 19.01 12.495 18 13 C18.0928125 11.1128125 18.0928125 11.1128125 18.1875 9.1875 C18.17106609 5.93816354 18.17106609 5.93816354 16.875 3 C14.10184376 1.52098334 12.08815875 1.61398016 9 2 C7 3 7 3 6 5 C5.71399811 8.43202271 5.90809958 10.72429875 7 14 C5.02 14 3.04 14 1 14 C1.10699219 13.38511719 1.21398438 12.77023438 1.32421875 12.13671875 C1.44410156 11.32847656 1.56398438 10.52023438 1.6875 9.6875 C1.87892578 8.48673828 1.87892578 8.48673828 2.07421875 7.26171875 C2.21053174 4.93945845 2.21053174 4.93945845 0.70703125 3.23046875 C-1.90536316 1.34739269 -3.874119 1.60926488 -7 2 C-9.03882095 2.87129307 -9.03882095 2.87129307 -10 5 C-10.24131207 7.71878263 -10.1347929 10.2592111 -10 13 C-10.66 12.67 -11.32 12.34 -12 12 C-12.48 4.8 -12.48 4.8 -10.5 1.5 C-6.77354157 -0.73587506 -4.32088243 -0.41151261 0 0 Z " fill="#7D7D7D" transform="translate(17,6)"/>
<path d="M0 0 C1.40958984 -0.00193359 1.40958984 -0.00193359 2.84765625 -0.00390625 C3.83636719 -0.00003906 4.82507813 0.00382812 5.84375 0.0078125 C7.32681641 0.00201172 7.32681641 0.00201172 8.83984375 -0.00390625 C9.77957031 -0.00261719 10.71929688 -0.00132813 11.6875 0 C12.55568359 0.00112793 13.42386719 0.00225586 14.31835938 0.00341797 C16.34375 0.1328125 16.34375 0.1328125 17.34375 1.1328125 C17.38467937 3.46578683 17.38616723 5.79986475 17.34375 8.1328125 C16.68375 8.1328125 16.02375 8.1328125 15.34375 8.1328125 C15.34375 6.1528125 15.34375 4.1728125 15.34375 2.1328125 C9.07375 2.1328125 2.80375 2.1328125 -3.65625 2.1328125 C-3.65625 4.1128125 -3.65625 6.0928125 -3.65625 8.1328125 C-1.34625 8.1328125 0.96375 8.1328125 3.34375 8.1328125 C3.34375 8.4628125 3.34375 8.7928125 3.34375 9.1328125 C-2.80859375 9.23046875 -2.80859375 9.23046875 -4.65625 9.1328125 C-5.65625 8.1328125 -5.65625 8.1328125 -5.78125 4.6328125 C-5.59790173 -0.50093914 -4.67836935 0.00607806 0 0 Z " fill="#6B6B6B" transform="translate(15.65625,29.8671875)"/>
<path d="M0 0 C2.64 0 5.28 0 8 0 C8 0.99 8 1.98 8 3 C10.97 3 13.94 3 17 3 C17 3.66 17 4.32 17 5 C11.06 5 5.12 5 -1 5 C-0.67 3.35 -0.34 1.7 0 0 Z " fill="#959595" transform="translate(13,33)"/>
<path d="M0 0 C0 2.31 0 4.62 0 7 C-3.3 6.67 -6.6 6.34 -10 6 C-10 7.65 -10 9.3 -10 11 C-10.66 11 -11.32 11 -12 11 C-12 9.02 -12 7.04 -12 5 C-10.37750059 4.16180842 -8.75191503 3.3295884 -7.125 2.5 C-6.22007813 2.0359375 -5.31515625 1.571875 -4.3828125 1.09375 C-2 0 -2 0 0 0 Z " fill="#777777" transform="translate(47,20)"/>
<path d="M0 0 C8.91 0 17.82 0 27 0 C27 0.33 27 0.66 27 1 C23.37 1 19.74 1 16 1 C16 1.66 16 2.32 16 3 C14.35 3 12.7 3 11 3 C11 2.34 11 1.68 11 1 C7.37 1 3.74 1 0 1 C0 0.67 0 0.34 0 0 Z " fill="#454545" transform="translate(8,23)"/>
<path d="M0 0 C2.475 0.495 2.475 0.495 5 1 C5 2.98 5 4.96 5 7 C3.35 7.33 1.7 7.66 0 8 C0 5.36 0 2.72 0 0 Z " fill="#383838" transform="translate(1,22)"/>
<path d="M0 0 C-0.78375 0.5775 -1.5675 1.155 -2.375 1.75 C-5.7397395 4.63406243 -6.62503335 6.87510006 -8 11 C-9 10 -9 10 -9.3125 7.1875 C-9 4 -9 4 -7.3125 1.625 C-4.61209763 -0.27258004 -3.22939919 -0.35882213 0 0 Z " fill="#505050" transform="translate(31,7)"/>
<path d="M0 0 C-0.78375 0.5775 -1.5675 1.155 -2.375 1.75 C-5.7397395 4.63406243 -6.62503335 6.87510006 -8 11 C-9 10 -9 10 -9.3125 7.1875 C-9 4 -9 4 -7.3125 1.625 C-4.61209763 -0.27258004 -3.22939919 -0.35882213 0 0 Z " fill="#505050" transform="translate(15,7)"/>
<path d="M0 0 C2.64 0 5.28 0 8 0 C8 0.99 8 1.98 8 3 C5.36 3 2.72 3 0 3 C0 2.01 0 1.02 0 0 Z " fill="#5C998F" transform="translate(13,33)"/>
<path d="M0 0 C1.65 0.33 3.3 0.66 5 1 C4.67 2.65 4.34 4.3 4 6 C3.67 5.01 3.34 4.02 3 3 C1.68 3.33 0.36 3.66 -1 4 C-0.67 2.68 -0.34 1.36 0 0 Z " fill="#767676" transform="translate(27,11)"/>
<path d="M0 0 C1.65 0.33 3.3 0.66 5 1 C4.67 2.65 4.34 4.3 4 6 C3.67 5.01 3.34 4.02 3 3 C1.68 3.33 0.36 3.66 -1 4 C-0.67 2.68 -0.34 1.36 0 0 Z " fill="#767676" transform="translate(11,11)"/>
<path d="M0 0 C1.32 0.66 2.64 1.32 4 2 C4 2.66 4 3.32 4 4 C2.02 4 0.04 4 -2 4 C-1.34 2.68 -0.68 1.36 0 0 Z " fill="#707070" transform="translate(20,16)"/>
</svg>
